<?xml version="1.0" standalone="no"?><!DOCTYPE svg PUBLIC "-//W3C//DTD SVG 1.1//EN"
        "http://www.w3.org/Graphics/SVG/1.1/DTD/svg11.dtd">
<svg t="1686969803657" class="icon" viewBox="0 0 1024 1024" version="1.1" xmlns="http://www.w3.org/2000/svg" p-id="2541"
     width="200" height="200">
    <path d="M811.707317 1024h-599.414634C94.907317 1024 0 929.092683 0 811.707317v-599.414634C0 94.907317 94.907317 0 212.292683 0h599.414634C929.092683 0 1024 94.907317 1024 212.292683v599.414634c0 117.385366-94.907317 212.292683-212.292683 212.292683zM212.292683 24.97561C109.892683 24.97561 24.97561 109.892683 24.97561 212.292683v599.414634C24.97561 914.107317 109.892683 999.02439 212.292683 999.02439h599.414634c102.4 0 187.317073-84.917073 187.317073-187.317073v-599.414634C999.02439 109.892683 914.107317 24.97561 811.707317 24.97561h-599.414634z"
          p-id="2542" fill="#1296db"></path>
    <path d="M187.317073 64.936585h317.190244c72.429268 0 124.878049 4.995122 162.341463 17.482927 49.95122 14.985366 92.409756 39.960976 129.873171 79.921951s62.439024 84.917073 82.419512 139.863415 27.473171 122.380488 27.473171 202.302439c0 69.931707-9.990244 132.370732-27.473171 182.321951-22.478049 62.439024-52.44878 112.390244-92.409756 152.35122-29.970732 29.970732-69.931707 52.44878-122.380487 67.434146-37.463415 12.487805-89.912195 17.482927-152.35122 17.482927H257.24878c-14.985366 0-72.429268 9.990244-169.834146 29.970732l99.902439-149.853659V64.936585z m172.331707 147.356098v569.443902h129.873171c47.453659 0 82.419512-2.497561 104.897561-7.492683 27.473171-7.492683 52.44878-19.980488 69.931708-34.965853s32.468293-44.956098 44.956097-82.419512 17.482927-89.912195 17.482927-157.346342-4.995122-117.385366-17.482927-152.351219-27.473171-62.439024-49.951219-82.419513-47.453659-32.468293-79.921952-39.960975c-24.97561-4.995122-72.429268-7.492683-142.360975-7.492683h-77.424391z"
          p-id="2543" fill="#1296db"></path>
</svg>
